<mxfile host="app.diagrams.net" modified="2022-12-13T08:42:43.688Z" agent="5.0 (Windows NT 10.0; Win64; x64) AppleWebKit/537.36 (KHTML, like Gecko) Chrome/107.0.0.0 Safari/537.36 OPR/93.0.0.0" etag="bSi0ZHtDjFFhUUS5JZp-" version="20.6.2" type="github">
  <diagram id="B-GyxHuO2gFk_xQ3-BS0" name="Page-1">
    <mxGraphModel dx="997" dy="571" grid="1" gridSize="10" guides="1" tooltips="1" connect="1" arrows="1" fold="1" page="1" pageScale="1" pageWidth="827" pageHeight="1169" math="0" shadow="0">
      <root>
        <mxCell id="0" />
        <mxCell id="1" parent="0" />
        <mxCell id="w99t1GycE9zQLhxh5EwA-1" value="Guest" style="shape=umlActor;verticalLabelPosition=bottom;verticalAlign=top;html=1;outlineConnect=0;" parent="1" vertex="1">
          <mxGeometry x="60" y="230" width="30" height="60" as="geometry" />
        </mxCell>
        <mxCell id="w99t1GycE9zQLhxh5EwA-4" value="náhled" style="ellipse;whiteSpace=wrap;html=1;" parent="1" vertex="1">
          <mxGeometry x="144" y="220" width="120" height="80" as="geometry" />
        </mxCell>
        <mxCell id="w99t1GycE9zQLhxh5EwA-10" value="" style="endArrow=classic;html=1;rounded=0;" parent="1" source="w99t1GycE9zQLhxh5EwA-1" target="w99t1GycE9zQLhxh5EwA-4" edge="1">
          <mxGeometry width="50" height="50" relative="1" as="geometry">
            <mxPoint x="190" y="340" as="sourcePoint" />
            <mxPoint x="240" y="290" as="targetPoint" />
          </mxGeometry>
        </mxCell>
        <mxCell id="w99t1GycE9zQLhxh5EwA-16" value="" style="edgeStyle=orthogonalEdgeStyle;rounded=0;orthogonalLoop=1;jettySize=auto;html=1;" parent="1" source="w99t1GycE9zQLhxh5EwA-26" target="w99t1GycE9zQLhxh5EwA-15" edge="1">
          <mxGeometry relative="1" as="geometry">
            <Array as="points">
              <mxPoint x="324" y="190" />
              <mxPoint x="349" y="190" />
            </Array>
          </mxGeometry>
        </mxCell>
        <mxCell id="w99t1GycE9zQLhxh5EwA-11" value="Regular User" style="shape=umlActor;verticalLabelPosition=bottom;verticalAlign=top;html=1;outlineConnect=0;" parent="1" vertex="1">
          <mxGeometry x="499" y="40" width="30" height="60" as="geometry" />
        </mxCell>
        <mxCell id="w99t1GycE9zQLhxh5EwA-13" value="Premium User" style="shape=umlActor;verticalLabelPosition=bottom;verticalAlign=top;html=1;outlineConnect=0;" parent="1" vertex="1">
          <mxGeometry x="499" y="170" width="30" height="60" as="geometry" />
        </mxCell>
        <mxCell id="JEOhI6Sg4uY9L5f-jO6U-9" value="" style="edgeStyle=orthogonalEdgeStyle;rounded=0;orthogonalLoop=1;jettySize=auto;html=1;entryX=1;entryY=0.5;entryDx=0;entryDy=0;" edge="1" parent="1" source="w99t1GycE9zQLhxh5EwA-13" target="w99t1GycE9zQLhxh5EwA-15">
          <mxGeometry relative="1" as="geometry">
            <mxPoint x="425" y="180" as="targetPoint" />
          </mxGeometry>
        </mxCell>
        <mxCell id="w99t1GycE9zQLhxh5EwA-15" value="Kometovat" style="ellipse;whiteSpace=wrap;html=1;verticalAlign=top;" parent="1" vertex="1">
          <mxGeometry x="289" y="210" width="120" height="30" as="geometry" />
        </mxCell>
        <mxCell id="w99t1GycE9zQLhxh5EwA-26" value="Denní limit" style="ellipse;whiteSpace=wrap;html=1;" parent="1" vertex="1">
          <mxGeometry x="264" y="100" width="120" height="80" as="geometry" />
        </mxCell>
        <mxCell id="w99t1GycE9zQLhxh5EwA-49" value="Premium User" style="shape=umlActor;verticalLabelPosition=bottom;verticalAlign=top;html=1;outlineConnect=0;" parent="1" vertex="1">
          <mxGeometry x="499" y="295" width="30" height="60" as="geometry" />
        </mxCell>
        <mxCell id="w99t1GycE9zQLhxh5EwA-57" value="Upravovat" style="ellipse;whiteSpace=wrap;html=1;verticalAlign=top;" parent="1" vertex="1">
          <mxGeometry x="264" y="325" width="120" height="30" as="geometry" />
        </mxCell>
        <mxCell id="w99t1GycE9zQLhxh5EwA-58" value="Mazat" style="ellipse;whiteSpace=wrap;html=1;verticalAlign=top;" parent="1" vertex="1">
          <mxGeometry x="264" y="355" width="120" height="30" as="geometry" />
        </mxCell>
        <mxCell id="w99t1GycE9zQLhxh5EwA-59" value="Ban/warn" style="ellipse;whiteSpace=wrap;html=1;verticalAlign=top;" parent="1" vertex="1">
          <mxGeometry x="264" y="385" width="120" height="30" as="geometry" />
        </mxCell>
        <mxCell id="JEOhI6Sg4uY9L5f-jO6U-3" value="" style="edgeStyle=orthogonalEdgeStyle;rounded=0;orthogonalLoop=1;jettySize=auto;html=1;" edge="1" parent="1" source="w99t1GycE9zQLhxh5EwA-49" target="w99t1GycE9zQLhxh5EwA-13">
          <mxGeometry relative="1" as="geometry">
            <mxPoint x="165" y="310" as="sourcePoint" />
            <mxPoint x="395" y="190" as="targetPoint" />
            <Array as="points">
              <mxPoint x="515" y="280" />
              <mxPoint x="515" y="280" />
            </Array>
          </mxGeometry>
        </mxCell>
        <mxCell id="w99t1GycE9zQLhxh5EwA-21" value="Postovat" style="ellipse;whiteSpace=wrap;html=1;verticalAlign=top;" parent="1" vertex="1">
          <mxGeometry x="289" y="240" width="120" height="30" as="geometry" />
        </mxCell>
        <mxCell id="JEOhI6Sg4uY9L5f-jO6U-8" value="" style="edgeStyle=orthogonalEdgeStyle;rounded=0;orthogonalLoop=1;jettySize=auto;html=1;" edge="1" parent="1" source="w99t1GycE9zQLhxh5EwA-11" target="w99t1GycE9zQLhxh5EwA-26">
          <mxGeometry relative="1" as="geometry">
            <Array as="points">
              <mxPoint x="415" y="80" />
              <mxPoint x="415" y="140" />
            </Array>
            <mxPoint x="495" y="100" as="sourcePoint" />
            <mxPoint x="316.57359312880703" y="224.39339828220182" as="targetPoint" />
          </mxGeometry>
        </mxCell>
        <mxCell id="JEOhI6Sg4uY9L5f-jO6U-10" value="" style="edgeStyle=orthogonalEdgeStyle;rounded=0;orthogonalLoop=1;jettySize=auto;html=1;entryX=1;entryY=0.5;entryDx=0;entryDy=0;exitX=0.5;exitY=0.5;exitDx=0;exitDy=0;exitPerimeter=0;" edge="1" parent="1" source="w99t1GycE9zQLhxh5EwA-13" target="w99t1GycE9zQLhxh5EwA-21">
          <mxGeometry relative="1" as="geometry">
            <mxPoint x="515" y="180" as="sourcePoint" />
            <mxPoint x="419" y="235" as="targetPoint" />
          </mxGeometry>
        </mxCell>
        <mxCell id="JEOhI6Sg4uY9L5f-jO6U-14" value="" style="edgeStyle=orthogonalEdgeStyle;rounded=0;orthogonalLoop=1;jettySize=auto;html=1;exitX=0.5;exitY=0.5;exitDx=0;exitDy=0;exitPerimeter=0;" edge="1" parent="1" source="w99t1GycE9zQLhxh5EwA-49" target="w99t1GycE9zQLhxh5EwA-57">
          <mxGeometry relative="1" as="geometry">
            <mxPoint x="525" y="310" as="sourcePoint" />
            <mxPoint x="525" y="210" as="targetPoint" />
            <Array as="points">
              <mxPoint x="485" y="325" />
              <mxPoint x="485" y="340" />
            </Array>
          </mxGeometry>
        </mxCell>
        <mxCell id="JEOhI6Sg4uY9L5f-jO6U-16" value="" style="edgeStyle=orthogonalEdgeStyle;rounded=0;orthogonalLoop=1;jettySize=auto;html=1;entryX=1;entryY=0.5;entryDx=0;entryDy=0;" edge="1" parent="1" target="w99t1GycE9zQLhxh5EwA-58">
          <mxGeometry relative="1" as="geometry">
            <mxPoint x="485" y="330" as="sourcePoint" />
            <mxPoint x="394" y="350" as="targetPoint" />
            <Array as="points">
              <mxPoint x="455" y="340" />
              <mxPoint x="455" y="370" />
            </Array>
          </mxGeometry>
        </mxCell>
        <mxCell id="JEOhI6Sg4uY9L5f-jO6U-17" value="" style="edgeStyle=orthogonalEdgeStyle;rounded=0;orthogonalLoop=1;jettySize=auto;html=1;entryX=1;entryY=0.5;entryDx=0;entryDy=0;" edge="1" parent="1" target="w99t1GycE9zQLhxh5EwA-59">
          <mxGeometry relative="1" as="geometry">
            <mxPoint x="485" y="330" as="sourcePoint" />
            <mxPoint x="394" y="380" as="targetPoint" />
            <Array as="points">
              <mxPoint x="485" y="330" />
              <mxPoint x="485" y="340" />
              <mxPoint x="455" y="340" />
              <mxPoint x="455" y="400" />
            </Array>
          </mxGeometry>
        </mxCell>
        <mxCell id="JEOhI6Sg4uY9L5f-jO6U-18" value="" style="edgeStyle=orthogonalEdgeStyle;rounded=0;orthogonalLoop=1;jettySize=auto;html=1;" edge="1" parent="1" source="w99t1GycE9zQLhxh5EwA-13" target="w99t1GycE9zQLhxh5EwA-11">
          <mxGeometry relative="1" as="geometry">
            <mxPoint x="495" y="140" as="sourcePoint" />
            <mxPoint x="525" y="240" as="targetPoint" />
            <Array as="points" />
          </mxGeometry>
        </mxCell>
      </root>
    </mxGraphModel>
  </diagram>
</mxfile>
